<svg xmlns="http://www.w3.org/2000/svg" version="1.1" width="1000px" height="1000px" style="shape-rendering:geometricPrecision; text-rendering:geometricPrecision; image-rendering:optimizeQuality; fill-rule:evenodd; clip-rule:evenodd" xmlns:xlink="http://www.w3.org/1999/xlink">
<g><path style="opacity:0.106" fill="#020200" d="M 543.5,122.5 C 560.503,122.333 577.503,122.5 594.5,123C 601.227,123.431 605.061,126.931 606,133.5C 607.221,144.8 607.721,156.134 607.5,167.5C 619.2,167.268 630.866,167.768 642.5,169C 648,169.833 651.167,173 652,178.5C 653.301,190.127 653.801,201.794 653.5,213.5C 658.5,213.5 663.5,213.5 668.5,213.5C 668.395,201.808 668.895,190.142 670,178.5C 671.167,173.333 674.333,170.167 679.5,169C 698.167,167 716.833,167 735.5,169C 740.667,170.167 743.833,173.333 745,178.5C 745.178,190.076 745.678,201.576 746.5,213C 773.52,213.116 800.52,213.783 827.5,215C 832.667,216.167 835.833,219.333 837,224.5C 839.275,244.243 838.942,263.909 836,283.5C 834.332,287.165 831.499,289.332 827.5,290C 816.167,290.333 804.833,290.667 793.5,291C 792.529,296.072 792.195,301.238 792.5,306.5C 819.169,306.333 845.835,306.5 872.5,307C 877.155,307.73 880.321,310.23 882,314.5C 883.132,332.292 883.632,350.125 883.5,368C 883.639,385.55 883.139,403.05 882,420.5C 880.73,424.77 877.896,427.27 873.5,428C 861.869,429.268 850.203,429.768 838.5,429.5C 838.333,449.836 838.5,470.169 839,490.5C 850.09,491.322 861.257,491.822 872.5,492C 879.084,492.994 882.584,496.827 883,503.5C 883.667,520.833 883.667,538.167 883,555.5C 882.569,562.227 879.069,566.061 872.5,567C 830.281,568.099 788.114,568.933 746,569.5C 745.201,574.087 745.368,578.587 746.5,583C 758.195,583.232 769.862,583.898 781.5,585C 785.499,585.668 788.332,587.835 790,591.5C 792.933,610.757 793.266,630.091 791,649.5C 790.394,652.548 788.894,655.048 786.5,657C 782.057,658.94 777.39,659.94 772.5,660C 759.833,660.667 747.167,660.667 734.5,660C 729.61,659.94 724.943,658.94 720.5,657C 718.106,655.048 716.606,652.548 716,649.5C 715.822,637.924 715.322,626.424 714.5,615C 678.835,614.5 643.168,614.333 607.5,614.5C 607.732,626.2 607.232,637.866 606,649.5C 605.167,655 602,658.167 596.5,659C 584.873,660.301 573.206,660.801 561.5,660.5C 561.5,711.833 561.5,763.167 561.5,814.5C 573.203,814.232 584.869,814.732 596.5,816C 600.587,816.617 603.42,818.784 605,822.5C 607.939,841.423 608.272,860.423 606,879.5C 605.061,886.069 601.227,889.569 594.5,890C 575.789,890.934 557.123,890.6 538.5,889C 534.23,887.321 531.73,884.155 531,879.5C 530.667,868.5 530.333,857.5 530,846.5C 519.908,845.839 509.741,845.506 499.5,845.5C 489.259,845.506 479.092,845.839 469,846.5C 468.667,857.5 468.333,868.5 468,879.5C 467.27,884.155 464.77,887.321 460.5,889C 441.877,890.6 423.211,890.934 404.5,890C 399.912,889.462 396.412,887.296 394,883.5C 391.893,870.932 391.059,858.266 391.5,845.5C 367.498,845.667 343.498,845.5 319.5,845C 312.814,845.597 306.981,843.764 302,839.5C 301.138,837.913 300.471,836.246 300,834.5C 299.5,822.838 299.333,811.171 299.5,799.5C 294.238,799.195 289.072,799.529 284,800.5C 283.667,826.833 283.333,853.167 283,879.5C 282.006,886.084 278.173,889.584 271.5,890C 254.167,890.667 236.833,890.667 219.5,890C 212.773,889.569 208.939,886.069 208,879.5C 207.667,875.5 207.333,871.5 207,867.5C 206.071,822.483 206.405,777.483 208,732.5C 209.167,727.333 212.333,724.167 217.5,723C 228.833,722.667 240.167,722.333 251.5,722C 252,721.5 252.5,721 253,720.5C 253.667,716.167 253.667,711.833 253,707.5C 232.667,706.167 212.333,706.167 192,707.5C 191.667,731.5 191.333,755.5 191,779.5C 191.529,785.86 189.696,791.36 185.5,796C 183.913,796.862 182.246,797.529 180.5,798C 161.104,800.242 141.771,799.909 122.5,797C 118.704,794.588 116.538,791.088 116,786.5C 115.028,752.453 115.361,718.453 117,684.5C 118.679,680.23 121.845,677.73 126.5,677C 137.806,675.865 149.139,675.365 160.5,675.5C 160.5,670.5 160.5,665.5 160.5,660.5C 151.827,660.666 143.16,660.5 134.5,660C 129.61,659.94 124.943,658.94 120.5,657C 118.064,654.293 116.564,651.127 116,647.5C 115.333,630.5 115.333,613.5 116,596.5C 116.564,592.873 118.064,589.707 120.5,587C 124.943,585.06 129.61,584.06 134.5,584C 143.16,583.5 151.827,583.334 160.5,583.5C 160.667,563.164 160.5,542.831 160,522.5C 148.91,521.678 137.743,521.178 126.5,521C 121.845,520.27 118.679,517.77 117,513.5C 115.386,494.886 115.052,476.219 116,457.5C 116.538,452.912 118.704,449.412 122.5,447C 141.771,444.091 161.104,443.758 180.5,446C 185.667,447.167 188.833,450.333 190,455.5C 190.949,467.382 191.782,479.215 192.5,491C 227.833,491.667 263.167,491.667 298.5,491C 299.021,462.844 299.854,434.677 301,406.5C 302.668,402.835 305.501,400.668 309.5,400C 328.167,398 346.833,398 365.5,400C 368.548,400.606 371.048,402.106 373,404.5C 374.98,409.277 375.98,414.277 376,419.5C 376.5,427.827 376.666,436.16 376.5,444.5C 396.833,444.5 417.167,444.5 437.5,444.5C 437.395,432.808 437.895,421.142 439,409.5C 440.167,404.333 443.333,401.167 448.5,400C 460.386,399.086 472.219,398.253 484,397.5C 484.667,362.5 484.667,327.5 484,292.5C 483.5,292 483,291.5 482.5,291C 471.167,290.667 459.833,290.333 448.5,290C 443.333,288.833 440.167,285.667 439,280.5C 437,246.5 437,212.5 439,178.5C 440.167,173.333 443.333,170.167 448.5,169C 463.806,167.519 479.139,167.186 494.5,168C 499.723,168.02 504.723,169.02 509.5,171C 511.894,172.952 513.394,175.452 514,178.5C 514.333,205.167 514.667,231.833 515,258.5C 515.5,259 516,259.5 516.5,260C 520.833,260.667 525.167,260.667 529.5,260C 530.33,217.904 530.83,175.738 531,133.5C 532.49,126.687 536.657,123.02 543.5,122.5 Z"/></g>
<g><path style="opacity:1" fill="#e4db69" d="M 545.5,129.5 C 561.167,129.5 576.833,129.5 592.5,129.5C 591.415,144.812 591.249,160.146 592,175.5C 607.402,175.613 622.902,175.613 638.5,175.5C 638.5,190.167 638.5,204.833 638.5,219.5C 637.662,219.842 637.328,220.508 637.5,221.5C 621.922,221.176 606.422,221.509 591,222.5C 590.5,252.832 590.333,283.165 590.5,313.5C 576.167,313.5 561.833,313.5 547.5,313.5C 547.817,298.089 547.483,282.755 546.5,267.5C 546.808,221.481 546.475,175.481 545.5,129.5 Z"/></g>
<g><path style="opacity:0.718" fill="#c1b856" d="M 545.5,129.5 C 546.475,175.481 546.808,221.481 546.5,267.5C 546.167,267.5 545.833,267.5 545.5,267.5C 545.832,224.33 545.499,181.33 544.5,138.5C 544.19,135.287 544.523,132.287 545.5,129.5 Z"/></g>
<g><path style="opacity:0.22" fill="#928b3e" d="M 592.5,129.5 C 593.496,144.324 593.829,159.324 593.5,174.5C 608.833,174.5 624.167,174.5 639.5,174.5C 639.5,189.833 639.5,205.167 639.5,220.5C 638.833,220.5 638.5,220.167 638.5,219.5C 638.5,204.833 638.5,190.167 638.5,175.5C 622.902,175.613 607.402,175.613 592,175.5C 591.249,160.146 591.415,144.812 592.5,129.5 Z"/></g>
<g><path style="opacity:1" fill="#d4af00" d="M 683.5,175.5 C 699.167,175.5 714.833,175.5 730.5,175.5C 730.5,190.833 730.5,206.167 730.5,221.5C 715.324,221.171 700.324,221.504 685.5,222.5C 684.833,222.5 684.167,222.5 683.5,222.5C 668.5,222.5 653.5,222.5 638.5,222.5C 638.5,221.833 638.167,221.5 637.5,221.5C 637.328,220.508 637.662,219.842 638.5,219.5C 638.5,220.167 638.833,220.5 639.5,220.5C 654.324,221.496 669.324,221.829 684.5,221.5C 684.733,206.145 684.399,190.812 683.5,175.5 Z"/></g>
<g><path style="opacity:0.509" fill="#948000" d="M 452.5,175.5 C 452.5,175.167 452.5,174.833 452.5,174.5C 468.5,174.5 484.5,174.5 500.5,174.5C 500.5,205.167 500.5,235.833 500.5,266.5C 501.919,267.451 503.585,267.784 505.5,267.5C 503.735,268.461 501.735,268.795 499.5,268.5C 499.5,237.5 499.5,206.5 499.5,175.5C 483.833,175.5 468.167,175.5 452.5,175.5 Z"/></g>
<g><path style="opacity:0.765" fill="#c3a900" d="M 452.5,175.5 C 468.167,175.5 483.833,175.5 499.5,175.5C 499.5,206.5 499.5,237.5 499.5,268.5C 484.324,268.829 469.324,268.496 454.5,267.5C 453.795,236.984 453.129,206.317 452.5,175.5 Z"/></g>
<g><path style="opacity:1" fill="#dabc00" d="M 454.5,267.5 C 454.5,237.5 454.5,207.5 454.5,177.5C 469.167,177.5 483.833,177.5 498.5,177.5C 498.5,207.5 498.5,237.5 498.5,267.5C 483.833,267.5 469.167,267.5 454.5,267.5 Z"/></g>
<g><path style="opacity:0.169" fill="#725f00" d="M 683.5,174.5 C 683.5,174.833 683.5,175.167 683.5,175.5C 684.399,190.812 684.733,206.145 684.5,221.5C 669.324,221.829 654.324,221.496 639.5,220.5C 654.182,220.833 668.848,220.499 683.5,219.5C 682.176,204.372 682.176,189.372 683.5,174.5 Z"/></g>
<g><path style="opacity:0.169" fill="#897100" d="M 683.5,175.5 C 683.5,175.167 683.5,174.833 683.5,174.5C 699.5,174.5 715.5,174.5 731.5,174.5C 731.5,189.833 731.5,205.167 731.5,220.5C 762.338,220.169 793.005,220.502 823.5,221.5C 792.5,221.5 761.5,221.5 730.5,221.5C 730.5,206.167 730.5,190.833 730.5,175.5C 714.833,175.5 699.167,175.5 683.5,175.5 Z"/></g>
<g><path style="opacity:1" fill="#d5b000" d="M 731.5,222.5 C 761.833,222.5 792.167,222.5 822.5,222.5C 822.829,237.676 822.496,252.676 821.5,267.5C 821.5,252.833 821.5,238.167 821.5,223.5C 806.833,223.5 792.167,223.5 777.5,223.5C 777.833,237.849 777.499,252.182 776.5,266.5C 769.166,267.799 761.666,268.466 754,268.5C 746.59,268.492 739.257,268.159 732,267.5C 731.5,252.504 731.333,237.504 731.5,222.5 Z"/></g>
<g><path style="opacity:1" fill="#ddd12d" d="M 637.5,222.5 C 637.333,237.837 637.5,253.17 638,268.5C 653.089,269.491 668.255,269.824 683.5,269.5C 683.5,284.5 683.5,299.5 683.5,314.5C 668.496,314.333 653.496,314.5 638.5,315C 637.509,330.089 637.176,345.255 637.5,360.5C 622.496,360.333 607.496,360.5 592.5,361C 591.509,376.089 591.176,391.255 591.5,406.5C 576.5,406.5 561.5,406.5 546.5,406.5C 530.991,406.83 515.658,406.496 500.5,405.5C 515.5,405.5 530.5,405.5 545.5,405.5C 545.167,359.996 545.167,314.663 545.5,269.5C 545.176,284.412 545.509,299.245 546.5,314C 561.83,314.5 577.163,314.667 592.5,314.5C 592.5,283.833 592.5,253.167 592.5,222.5C 607.5,222.5 622.5,222.5 637.5,222.5 Z"/></g>
<g><path style="opacity:0.129" fill="#6b601a" d="M 544.5,138.5 C 545.499,181.33 545.832,224.33 545.5,267.5C 532.167,267.5 518.833,267.5 505.5,267.5C 503.585,267.784 501.919,267.451 500.5,266.5C 515.167,266.5 529.833,266.5 544.5,266.5C 544.5,223.833 544.5,181.167 544.5,138.5 Z"/></g>
<g><path style="opacity:1" fill="#d8b700" d="M 685.5,222.5 C 700.324,221.504 715.324,221.171 730.5,221.5C 730.5,222.167 730.833,222.5 731.5,222.5C 731.333,237.504 731.5,252.504 732,267.5C 739.257,268.159 746.59,268.492 754,268.5C 761.666,268.466 769.166,267.799 776.5,266.5C 777.499,252.182 777.833,237.849 777.5,223.5C 792.167,223.5 806.833,223.5 821.5,223.5C 821.5,238.167 821.5,252.833 821.5,267.5C 806.129,266.85 791.129,267.516 776.5,269.5C 776.5,284.167 776.5,298.833 776.5,313.5C 776.167,313.5 775.833,313.5 775.5,313.5C 775.667,299.163 775.5,284.829 775,270.5C 760.579,269.51 746.079,269.176 731.5,269.5C 731.5,283.5 731.5,297.5 731.5,311.5C 745.504,311.333 759.504,311.5 773.5,312C 744.172,312.891 714.839,313.391 685.5,313.5C 685.5,298.833 685.5,284.167 685.5,269.5C 700.676,269.829 715.676,269.496 730.5,268.5C 730.829,253.324 730.496,238.324 729.5,223.5C 715.01,222.504 700.343,222.171 685.5,222.5 Z"/></g>
<g><path style="opacity:0.792" fill="#a88e00" d="M 730.5,221.5 C 761.5,221.5 792.5,221.5 823.5,221.5C 824.833,237.167 824.833,252.833 823.5,268.5C 807.756,268.183 792.089,268.516 776.5,269.5C 791.129,267.516 806.129,266.85 821.5,267.5C 822.496,252.676 822.829,237.676 822.5,222.5C 792.167,222.5 761.833,222.5 731.5,222.5C 730.833,222.5 730.5,222.167 730.5,221.5 Z"/></g>
<g><path style="opacity:1" fill="#dbc616" d="M 637.5,221.5 C 638.167,221.5 638.5,221.833 638.5,222.5C 638.5,237.5 638.5,252.5 638.5,267.5C 653.5,267.5 668.5,267.5 683.5,267.5C 683.5,252.5 683.5,237.5 683.5,222.5C 684.167,222.5 684.833,222.5 685.5,222.5C 700.343,222.171 715.01,222.504 729.5,223.5C 730.496,238.324 730.829,253.324 730.5,268.5C 715.167,268.5 699.833,268.5 684.5,268.5C 684.5,283.833 684.5,299.167 684.5,314.5C 715.005,314.831 745.338,314.498 775.5,313.5C 775.833,313.5 776.167,313.5 776.5,313.5C 776.5,314.167 776.5,314.833 776.5,315.5C 745.833,315.5 715.167,315.5 684.5,315.5C 684.5,330.167 684.5,344.833 684.5,359.5C 684.5,359.833 684.5,360.167 684.5,360.5C 684.167,360.5 683.833,360.5 683.5,360.5C 683.5,360.833 683.5,361.167 683.5,361.5C 668.5,361.5 653.5,361.5 638.5,361.5C 638.5,376.5 638.5,391.5 638.5,406.5C 638.167,406.5 637.833,406.5 637.5,406.5C 637.5,406.833 637.5,407.167 637.5,407.5C 622.5,407.5 607.5,407.5 592.5,407.5C 592.829,422.343 592.496,437.01 591.5,451.5C 591.5,451.833 591.5,452.167 591.5,452.5C 576.5,452.5 561.5,452.5 546.5,452.5C 546.5,437.167 546.5,421.833 546.5,406.5C 561.5,406.5 576.5,406.5 591.5,406.5C 591.176,391.255 591.509,376.089 592.5,361C 607.496,360.5 622.496,360.333 637.5,360.5C 637.176,345.255 637.509,330.089 638.5,315C 653.496,314.5 668.496,314.333 683.5,314.5C 683.5,299.5 683.5,284.5 683.5,269.5C 668.255,269.824 653.089,269.491 638,268.5C 637.5,253.17 637.333,237.837 637.5,222.5C 637.5,222.167 637.5,221.833 637.5,221.5 Z"/></g>
<g><path style="opacity:1" fill="#ded22e" d="M 729.5,223.5 C 729.5,238.167 729.5,252.833 729.5,267.5C 714.833,267.5 700.167,267.5 685.5,267.5C 685.5,252.833 685.5,238.167 685.5,223.5C 700.167,223.5 714.833,223.5 729.5,223.5 Z"/></g>
<g><path style="opacity:1" fill="#d8b700" d="M 638.5,222.5 C 653.5,222.5 668.5,222.5 683.5,222.5C 683.5,237.5 683.5,252.5 683.5,267.5C 668.5,267.5 653.5,267.5 638.5,267.5C 638.5,252.5 638.5,237.5 638.5,222.5 Z"/></g>
<g><path style="opacity:1" fill="#dabd00" d="M 730.5,268.5 C 715.676,269.496 700.676,269.829 685.5,269.5C 685.5,284.167 685.5,298.833 685.5,313.5C 714.839,313.391 744.172,312.891 773.5,312C 759.504,311.5 745.504,311.333 731.5,311.5C 731.5,297.5 731.5,283.5 731.5,269.5C 746.079,269.176 760.579,269.51 775,270.5C 775.5,284.829 775.667,299.163 775.5,313.5C 745.338,314.498 715.005,314.831 684.5,314.5C 684.5,299.167 684.5,283.833 684.5,268.5C 699.833,268.5 715.167,268.5 730.5,268.5 Z"/></g>
<g><path style="opacity:1" fill="#dabc00" d="M 505.5,267.5 C 518.833,267.5 532.167,267.5 545.5,267.5C 545.5,268.167 545.5,268.833 545.5,269.5C 545.167,314.663 545.167,359.996 545.5,405.5C 530.5,405.5 515.5,405.5 500.5,405.5C 500.5,404.833 500.167,404.5 499.5,404.5C 499.5,359.167 499.5,313.833 499.5,268.5C 501.735,268.795 503.735,268.461 505.5,267.5 Z"/></g>
<g><path style="opacity:0.565" fill="#7e6c00" d="M 823.5,268.5 C 808.672,269.331 793.672,269.831 778.5,270C 778.828,284.387 778.495,298.887 777.5,313.5C 777.167,313.5 776.833,313.5 776.5,313.5C 776.5,298.833 776.5,284.167 776.5,269.5C 792.089,268.516 807.756,268.183 823.5,268.5 Z"/></g>
<g><path style="opacity:0.51" fill="#816f00" d="M 452.5,174.5 C 452.5,174.833 452.5,175.167 452.5,175.5C 453.129,206.317 453.795,236.984 454.5,267.5C 469.324,268.496 484.324,268.829 499.5,268.5C 499.5,313.833 499.5,359.167 499.5,404.5C 499.5,404.833 499.5,405.167 499.5,405.5C 499.167,405.5 498.833,405.5 498.5,405.5C 498.5,360.167 498.5,314.833 498.5,269.5C 482.922,269.824 467.422,269.491 452,268.5C 451.169,236.997 451.336,205.664 452.5,174.5 Z"/></g>
<g><path style="opacity:1" fill="#e3d855" d="M 637.5,221.5 C 637.5,221.833 637.5,222.167 637.5,222.5C 622.5,222.5 607.5,222.5 592.5,222.5C 592.5,253.167 592.5,283.833 592.5,314.5C 577.163,314.667 561.83,314.5 546.5,314C 545.509,299.245 545.176,284.412 545.5,269.5C 545.5,268.833 545.5,268.167 545.5,267.5C 545.833,267.5 546.167,267.5 546.5,267.5C 547.483,282.755 547.817,298.089 547.5,313.5C 561.833,313.5 576.167,313.5 590.5,313.5C 590.333,283.165 590.5,252.832 591,222.5C 606.422,221.509 621.922,221.176 637.5,221.5 Z"/></g>
<g><path style="opacity:0.999" fill="#ded22e" d="M 776.5,315.5 C 791.5,315.5 806.5,315.5 821.5,315.5C 821.5,330.167 821.5,344.833 821.5,359.5C 775.833,359.5 730.167,359.5 684.5,359.5C 684.5,344.833 684.5,330.167 684.5,315.5C 715.167,315.5 745.833,315.5 776.5,315.5 Z"/></g>
<g><path style="opacity:1" fill="#a89f20" d="M 822.5,313.5 C 838.167,313.5 853.833,313.5 869.5,313.5C 869.5,329.5 869.5,345.5 869.5,361.5C 854.496,361.333 839.496,361.5 824.5,362C 823.826,376.833 823.159,391.666 822.5,406.5C 807.167,406.5 791.833,406.5 776.5,406.5C 761.324,406.829 746.324,406.496 731.5,405.5C 761.5,405.5 791.5,405.5 821.5,405.5C 821.199,390.452 821.532,375.452 822.5,360.5C 823.823,344.931 823.823,329.265 822.5,313.5 Z"/></g>
<g><path style="opacity:1" fill="#dbbc00" d="M 683.5,360.5 C 668.83,360.667 654.163,360.5 639.5,360C 638.841,352.743 638.508,345.41 638.5,338C 638.508,330.59 638.841,323.257 639.5,316C 654.163,315.5 668.83,315.333 683.5,315.5C 683.5,330.5 683.5,345.5 683.5,360.5 Z"/></g>
<g><path style="opacity:1" fill="#cfc22a" d="M 776.5,313.5 C 776.833,313.5 777.167,313.5 777.5,313.5C 792.5,313.5 807.5,313.5 822.5,313.5C 823.823,329.265 823.823,344.931 822.5,360.5C 776.5,360.5 730.5,360.5 684.5,360.5C 684.5,360.167 684.5,359.833 684.5,359.5C 730.167,359.5 775.833,359.5 821.5,359.5C 821.5,344.833 821.5,330.167 821.5,315.5C 806.5,315.5 791.5,315.5 776.5,315.5C 776.5,314.833 776.5,314.167 776.5,313.5 Z"/></g>
<g><path style="opacity:1" fill="#ded22d" d="M 683.5,361.5 C 683.5,376.5 683.5,391.5 683.5,406.5C 668.5,406.5 653.5,406.5 638.5,406.5C 638.5,391.5 638.5,376.5 638.5,361.5C 653.5,361.5 668.5,361.5 683.5,361.5 Z"/></g>
<g><path style="opacity:1" fill="#dabc00" d="M 637.5,406.5 C 622.5,406.5 607.5,406.5 592.5,406.5C 592.333,391.83 592.5,377.163 593,362.5C 607.755,361.509 622.588,361.176 637.5,361.5C 637.5,376.5 637.5,391.5 637.5,406.5 Z"/></g>
<g><path style="opacity:1" fill="#908719" d="M 869.5,361.5 C 869.5,376.5 869.5,391.5 869.5,406.5C 853.833,406.5 838.167,406.5 822.5,406.5C 823.159,391.666 823.826,376.833 824.5,362C 839.496,361.5 854.496,361.333 869.5,361.5 Z"/></g>
<g><path style="opacity:1" fill="#908719" d="M 685.5,362.5 C 700.167,362.5 714.833,362.5 729.5,362.5C 729.5,377.167 729.5,391.833 729.5,406.5C 714.833,406.5 700.167,406.5 685.5,406.5C 685.5,391.833 685.5,377.167 685.5,362.5 Z"/></g>
<g><path style="opacity:1" fill="#dbbd00" d="M 591.5,451.5 C 576.833,451.5 562.167,451.5 547.5,451.5C 547.5,436.833 547.5,422.167 547.5,407.5C 561.837,407.333 576.171,407.5 590.5,408C 591.49,422.421 591.824,436.921 591.5,451.5 Z"/></g>
<g><path style="opacity:1" fill="#ddd12d" d="M 637.5,407.5 C 637.5,422.833 637.5,438.167 637.5,453.5C 622.5,453.5 607.5,453.5 592.5,453.5C 592.167,453.5 591.833,453.5 591.5,453.5C 591.5,453.167 591.5,452.833 591.5,452.5C 591.5,452.167 591.5,451.833 591.5,451.5C 592.496,437.01 592.829,422.343 592.5,407.5C 607.5,407.5 622.5,407.5 637.5,407.5 Z"/></g>
<g><path style="opacity:1" fill="#9eb500" d="M 499.5,404.5 C 500.167,404.5 500.5,404.833 500.5,405.5C 515.658,406.496 530.991,406.83 546.5,406.5C 546.5,421.833 546.5,437.167 546.5,452.5C 561.5,452.5 576.5,452.5 591.5,452.5C 591.5,452.833 591.5,453.167 591.5,453.5C 576.167,453.5 560.833,453.5 545.5,453.5C 545.5,438.167 545.5,422.833 545.5,407.5C 530.167,407.5 514.833,407.5 499.5,407.5C 499.5,406.833 499.5,406.167 499.5,405.5C 499.5,405.167 499.5,404.833 499.5,404.5 Z"/></g>
<g><path style="opacity:1" fill="#b1a822" d="M 683.5,360.5 C 683.833,360.5 684.167,360.5 684.5,360.5C 730.5,360.5 776.5,360.5 822.5,360.5C 821.532,375.452 821.199,390.452 821.5,405.5C 791.5,405.5 761.5,405.5 731.5,405.5C 731.824,390.921 731.49,376.421 730.5,362C 715.328,361.172 700.328,361.339 685.5,362.5C 685.5,377.167 685.5,391.833 685.5,406.5C 700.324,407.496 715.324,407.829 730.5,407.5C 730.5,422.5 730.5,437.5 730.5,452.5C 715.167,452.5 699.833,452.5 684.5,452.5C 684.5,437.5 684.5,422.5 684.5,407.5C 669.167,407.5 653.833,407.5 638.5,407.5C 638.5,422.833 638.5,438.167 638.5,453.5C 653.833,453.5 669.167,453.5 684.5,453.5C 684.667,468.504 684.5,483.504 684,498.5C 676.576,499.159 669.076,499.492 661.5,499.5C 653.924,499.492 646.424,499.159 639,498.5C 638.831,483.661 638.331,468.994 637.5,454.5C 622.5,454.5 607.5,454.5 592.5,454.5C 592.5,454.167 592.5,453.833 592.5,453.5C 607.5,453.5 622.5,453.5 637.5,453.5C 637.5,438.167 637.5,422.833 637.5,407.5C 637.5,407.167 637.5,406.833 637.5,406.5C 637.833,406.5 638.167,406.5 638.5,406.5C 653.5,406.5 668.5,406.5 683.5,406.5C 683.5,391.5 683.5,376.5 683.5,361.5C 683.5,361.167 683.5,360.833 683.5,360.5 Z"/></g>
<g><path style="opacity:1" fill="#908719" d="M 776.5,406.5 C 791.833,406.5 807.167,406.5 822.5,406.5C 807.5,407.167 792.5,407.833 777.5,408.5C 776.504,422.99 776.171,437.657 776.5,452.5C 761.5,452.5 746.5,452.5 731.5,452.5C 731.5,437.833 731.5,423.167 731.5,408.5C 746.17,408.667 760.837,408.5 775.5,408C 776.056,407.617 776.389,407.117 776.5,406.5 Z"/></g>
<g><path style="opacity:0.85" fill="#c1a700" d="M 361.5,449.5 C 361.5,450.167 361.5,450.833 361.5,451.5C 360.833,452.167 360.167,452.833 359.5,453.5C 359.231,438.138 359.564,422.805 360.5,407.5C 345.5,407.5 330.5,407.5 315.5,407.5C 315.5,422.833 315.5,438.167 315.5,453.5C 315.167,453.5 314.833,453.5 314.5,453.5C 314.5,437.833 314.5,422.167 314.5,406.5C 330.167,406.5 345.833,406.5 361.5,406.5C 361.5,420.833 361.5,435.167 361.5,449.5 Z"/></g>
<g><path style="opacity:1" fill="#dabc01" d="M 359.5,453.5 C 344.833,453.5 330.167,453.5 315.5,453.5C 315.5,438.167 315.5,422.833 315.5,407.5C 330.5,407.5 345.5,407.5 360.5,407.5C 359.564,422.805 359.231,438.138 359.5,453.5 Z"/></g>
<g><path style="opacity:0.363" fill="#322e03" d="M 869.5,407.5 C 854.676,408.496 839.676,408.829 824.5,408.5C 824.5,438.167 824.5,467.833 824.5,497.5C 823.502,467.671 823.169,437.671 823.5,407.5C 838.833,407.5 854.167,407.5 869.5,407.5 Z"/></g>
<g><path style="opacity:0.467" fill="#837100" d="M 362.5,449.5 C 362.167,449.5 361.833,449.5 361.5,449.5C 361.5,435.167 361.5,420.833 361.5,406.5C 345.833,406.5 330.167,406.5 314.5,406.5C 314.5,422.167 314.5,437.833 314.5,453.5C 314.167,453.5 313.833,453.5 313.5,453.5C 313.5,437.5 313.5,421.5 313.5,405.5C 329.833,405.5 346.167,405.5 362.5,405.5C 362.5,420.167 362.5,434.833 362.5,449.5 Z"/></g>
<g><path style="opacity:0.169" fill="#1f6200" d="M 361.5,449.5 C 361.833,449.5 362.167,449.5 362.5,449.5C 392.148,451.492 422.148,452.159 452.5,451.5C 422.338,452.498 392.005,452.831 361.5,452.5C 361.5,452.167 361.5,451.833 361.5,451.5C 361.5,450.833 361.5,450.167 361.5,449.5 Z"/></g>
<g><path style="opacity:1" fill="#10aa00" d="M 498.5,405.5 C 498.833,405.5 499.167,405.5 499.5,405.5C 499.5,406.167 499.5,406.833 499.5,407.5C 514.324,408.496 529.324,408.829 544.5,408.5C 544.667,423.17 544.5,437.837 544,452.5C 529.649,452.548 515.149,452.548 500.5,452.5C 500.5,467.833 500.5,483.167 500.5,498.5C 515.504,498.333 530.504,498.5 545.5,499C 546.491,514.089 546.824,529.255 546.5,544.5C 575.85,544.558 605.183,543.891 634.5,542.5C 620.516,541.501 606.516,541.167 592.5,541.5C 592.5,528.167 592.5,514.833 592.5,501.5C 606.677,501.829 620.677,501.496 634.5,500.5C 635.167,500.5 635.833,500.5 636.5,500.5C 636.5,515.5 636.5,530.5 636.5,545.5C 621.83,545.333 607.163,545.5 592.5,546C 592,546.5 591.5,547 591,547.5C 590.5,561.829 590.333,576.163 590.5,590.5C 561.118,590.501 531.784,591.168 502.5,592.5C 501.833,592.167 501.167,591.833 500.5,591.5C 499.501,576.181 499.167,560.848 499.5,545.5C 484.5,545.5 469.5,545.5 454.5,545.5C 454.83,561.009 454.496,576.342 453.5,591.5C 453.167,591.5 452.833,591.5 452.5,591.5C 452.5,576.5 452.5,561.5 452.5,546.5C 421.833,546.5 391.167,546.5 360.5,546.5C 360.5,546.167 360.5,545.833 360.5,545.5C 360.805,514.833 361.138,484.166 361.5,453.5C 376.5,453.5 391.5,453.5 406.5,453.5C 407.803,468.458 407.803,483.458 406.5,498.5C 421.833,498.5 437.167,498.5 452.5,498.5C 452.5,483.5 452.5,468.5 452.5,453.5C 453.83,447.034 454.497,440.201 454.5,433C 454.333,426.167 454.167,419.333 454,412.5C 453.617,411.944 453.117,411.611 452.5,411.5C 452.5,409.5 452.5,407.5 452.5,405.5C 467.833,405.5 483.167,405.5 498.5,405.5 Z"/></g>
<g><path style="opacity:0.455" fill="#289400" d="M 452.5,411.5 C 453.117,411.611 453.617,411.944 454,412.5C 454.167,419.333 454.333,426.167 454.5,433C 454.497,440.201 453.83,447.034 452.5,453.5C 437.167,453.5 421.833,453.5 406.5,453.5C 391.5,453.5 376.5,453.5 361.5,453.5C 361.5,453.167 361.5,452.833 361.5,452.5C 392.005,452.831 422.338,452.498 452.5,451.5C 452.5,438.167 452.5,424.833 452.5,411.5 Z"/></g>
<g><path style="opacity:1" fill="#3fac00" d="M 406.5,453.5 C 421.833,453.5 437.167,453.5 452.5,453.5C 452.5,468.5 452.5,483.5 452.5,498.5C 437.167,498.5 421.833,498.5 406.5,498.5C 407.803,483.458 407.803,468.458 406.5,453.5 Z"/></g>
<g><path style="opacity:1" fill="#d9bc00" d="M 129.5,452.5 C 145.167,452.5 160.833,452.5 176.5,452.5C 176.5,454.833 176.5,457.167 176.5,459.5C 175.505,472.323 175.171,485.323 175.5,498.5C 160.167,498.5 144.833,498.5 129.5,498.5C 129.5,483.167 129.5,467.833 129.5,452.5 Z"/></g>
<g><path style="opacity:1" fill="#90871a" d="M 592.5,454.5 C 607.5,454.5 622.5,454.5 637.5,454.5C 637.5,469.167 637.5,483.833 637.5,498.5C 622.5,498.5 607.5,498.5 592.5,498.5C 592.5,483.833 592.5,469.167 592.5,454.5 Z"/></g>
<g><path style="opacity:1" fill="#918819" d="M 729.5,454.5 C 729.5,469.167 729.5,483.833 729.5,498.5C 714.833,498.5 700.167,498.5 685.5,498.5C 685.5,483.833 685.5,469.167 685.5,454.5C 700.167,454.5 714.833,454.5 729.5,454.5 Z"/></g>
<g><path style="opacity:1" fill="#655f0e" d="M 731.5,453.5 C 746.5,453.5 761.5,453.5 776.5,453.5C 776.5,468.833 776.5,484.167 776.5,499.5C 761.496,499.667 746.496,499.5 731.5,499C 730.509,484.245 730.176,469.412 730.5,454.5C 730.5,453.833 730.833,453.5 731.5,453.5 Z"/></g>
<g><path style="opacity:1" fill="#857d13" d="M 777.5,408.5 C 777.5,423.167 777.5,437.833 777.5,452.5C 792.5,452.5 807.5,452.5 822.5,452.5C 822.5,468.5 822.5,484.5 822.5,500.5C 807.5,500.5 792.5,500.5 777.5,500.5C 777.829,515.676 777.496,530.676 776.5,545.5C 760.833,545.5 745.167,545.5 729.5,545.5C 729.5,530.167 729.5,514.833 729.5,499.5C 714.833,499.5 700.167,499.5 685.5,499.5C 685.5,499.167 685.5,498.833 685.5,498.5C 700.167,498.5 714.833,498.5 729.5,498.5C 729.5,483.833 729.5,469.167 729.5,454.5C 729.833,454.5 730.167,454.5 730.5,454.5C 730.176,469.412 730.509,484.245 731.5,499C 746.496,499.5 761.496,499.667 776.5,499.5C 776.5,484.167 776.5,468.833 776.5,453.5C 761.5,453.5 746.5,453.5 731.5,453.5C 731.5,453.167 731.5,452.833 731.5,452.5C 746.5,452.5 761.5,452.5 776.5,452.5C 776.171,437.657 776.504,422.99 777.5,408.5 Z"/></g>
<g><path style="opacity:1" fill="#e6dd69" d="M 315.5,453.5 C 330.167,453.5 344.833,453.5 359.5,453.5C 359.5,484.167 359.5,514.833 359.5,545.5C 344.5,545.5 329.5,545.5 314.5,545.5C 314.5,560.833 314.5,576.167 314.5,591.5C 283.833,591.5 253.167,591.5 222.5,591.5C 222.5,576.5 222.5,561.5 222.5,546.5C 238.167,546.5 253.833,546.5 269.5,546.5C 269.5,530.833 269.5,515.167 269.5,499.5C 284.833,499.5 300.167,499.5 315.5,499.5C 315.5,484.167 315.5,468.833 315.5,453.5 Z"/></g>
<g><path style="opacity:0.129" fill="#6b5c00" d="M 129.5,452.5 C 145.325,451.504 161.325,451.17 177.5,451.5C 177.5,466.833 177.5,482.167 177.5,497.5C 207.833,497.5 238.167,497.5 268.5,497.5C 268.5,497.833 268.5,498.167 268.5,498.5C 237.833,498.5 207.167,498.5 176.5,498.5C 176.5,485.5 176.5,472.5 176.5,459.5C 176.5,457.167 176.5,454.833 176.5,452.5C 160.833,452.5 145.167,452.5 129.5,452.5 Z"/></g>
<g><path style="opacity:0.129" fill="#6f6a2c" d="M 313.5,453.5 C 313.833,453.5 314.167,453.5 314.5,453.5C 314.5,468.5 314.5,483.5 314.5,498.5C 299.167,498.5 283.833,498.5 268.5,498.5C 268.5,498.167 268.5,497.833 268.5,497.5C 283.5,497.5 298.5,497.5 313.5,497.5C 313.5,482.833 313.5,468.167 313.5,453.5 Z"/></g>
<g><path style="opacity:0.392" fill="#bfb755" d="M 314.5,453.5 C 314.833,453.5 315.167,453.5 315.5,453.5C 315.5,468.833 315.5,484.167 315.5,499.5C 300.167,499.5 284.833,499.5 269.5,499.5C 269.167,499.5 268.833,499.5 268.5,499.5C 268.5,499.167 268.5,498.833 268.5,498.5C 283.833,498.5 299.167,498.5 314.5,498.5C 314.5,483.5 314.5,468.5 314.5,453.5 Z"/></g>
<g><path style="opacity:1" fill="#00a100" d="M 363.5,499.5 C 364.289,499.783 364.956,500.283 365.5,501C 393.876,501.825 422.209,501.658 450.5,500.5C 451.5,500.833 452.167,501.5 452.5,502.5C 451.167,515.833 451.167,529.167 452.5,542.5C 452.291,543.086 451.957,543.586 451.5,544C 422.261,544.171 393.095,544.671 364,545.5C 362.847,537.993 362.347,530.326 362.5,522.5C 362.516,514.757 362.849,507.091 363.5,499.5 Z"/></g>
<g><path style="opacity:1" fill="#9d941d" d="M 685.5,362.5 C 700.328,361.339 715.328,361.172 730.5,362C 731.49,376.421 731.824,390.921 731.5,405.5C 746.324,406.496 761.324,406.829 776.5,406.5C 776.389,407.117 776.056,407.617 775.5,408C 760.837,408.5 746.17,408.667 731.5,408.5C 731.5,423.167 731.5,437.833 731.5,452.5C 731.5,452.833 731.5,453.167 731.5,453.5C 730.833,453.5 730.5,453.833 730.5,454.5C 730.167,454.5 729.833,454.5 729.5,454.5C 714.833,454.5 700.167,454.5 685.5,454.5C 685.5,469.167 685.5,483.833 685.5,498.5C 685.5,498.833 685.5,499.167 685.5,499.5C 684.833,499.5 684.5,499.833 684.5,500.5C 669.167,500.5 653.833,500.5 638.5,500.5C 638.167,499.833 637.833,499.167 637.5,498.5C 637.5,483.833 637.5,469.167 637.5,454.5C 638.331,468.994 638.831,483.661 639,498.5C 646.424,499.159 653.924,499.492 661.5,499.5C 669.076,499.492 676.576,499.159 684,498.5C 684.5,483.504 684.667,468.504 684.5,453.5C 669.167,453.5 653.833,453.5 638.5,453.5C 638.5,438.167 638.5,422.833 638.5,407.5C 653.833,407.5 669.167,407.5 684.5,407.5C 684.5,422.5 684.5,437.5 684.5,452.5C 699.833,452.5 715.167,452.5 730.5,452.5C 730.5,437.5 730.5,422.5 730.5,407.5C 715.324,407.829 700.324,407.496 685.5,406.5C 700.167,406.5 714.833,406.5 729.5,406.5C 729.5,391.833 729.5,377.167 729.5,362.5C 714.833,362.5 700.167,362.5 685.5,362.5 Z"/></g>
<g><path style="opacity:1" fill="#908719" d="M 639.5,408.5 C 654.167,408.5 668.833,408.5 683.5,408.5C 683.5,423.167 683.5,437.833 683.5,452.5C 668.833,452.5 654.167,452.5 639.5,452.5C 639.5,437.833 639.5,423.167 639.5,408.5 Z"/></g>
<g><path style="opacity:1" fill="#aecd4c" d="M 361.5,451.5 C 361.5,451.833 361.5,452.167 361.5,452.5C 361.5,452.833 361.5,453.167 361.5,453.5C 361.138,484.166 360.805,514.833 360.5,545.5C 360.167,545.5 359.833,545.5 359.5,545.5C 359.5,514.833 359.5,484.167 359.5,453.5C 360.167,452.833 360.833,452.167 361.5,451.5 Z"/></g>
<g><path style="opacity:0.998" fill="#635d0d" d="M 822.5,406.5 C 838.167,406.5 853.833,406.5 869.5,406.5C 869.5,406.833 869.5,407.167 869.5,407.5C 854.167,407.5 838.833,407.5 823.5,407.5C 823.169,437.671 823.502,467.671 824.5,497.5C 839.324,498.496 854.324,498.829 869.5,498.5C 869.5,514.5 869.5,530.5 869.5,546.5C 838.5,546.5 807.5,546.5 776.5,546.5C 776.5,546.167 776.5,545.833 776.5,545.5C 777.496,530.676 777.829,515.676 777.5,500.5C 792.5,500.5 807.5,500.5 822.5,500.5C 822.5,484.5 822.5,468.5 822.5,452.5C 807.5,452.5 792.5,452.5 777.5,452.5C 777.5,437.833 777.5,423.167 777.5,408.5C 792.5,407.833 807.5,407.167 822.5,406.5 Z"/></g>
<g><path style="opacity:1" fill="#dabc00" d="M 267.5,500.5 C 267.5,515.167 267.5,529.833 267.5,544.5C 252.496,544.333 237.496,544.5 222.5,545C 221.509,560.089 221.176,575.255 221.5,590.5C 206.833,590.5 192.167,590.5 177.5,590.5C 177.5,560.5 177.5,530.5 177.5,500.5C 207.5,500.5 237.5,500.5 267.5,500.5 Z"/></g>
<g><path style="opacity:1" fill="#3eac00" d="M 499.5,407.5 C 514.833,407.5 530.167,407.5 545.5,407.5C 545.5,422.833 545.5,438.167 545.5,453.5C 560.833,453.5 576.167,453.5 591.5,453.5C 591.333,468.837 591.5,484.17 592,499.5C 606.088,500.49 620.255,500.824 634.5,500.5C 620.677,501.496 606.677,501.829 592.5,501.5C 592.5,514.833 592.5,528.167 592.5,541.5C 606.516,541.167 620.516,541.501 634.5,542.5C 605.183,543.891 575.85,544.558 546.5,544.5C 546.824,529.255 546.491,514.089 545.5,499C 530.504,498.5 515.504,498.333 500.5,498.5C 500.5,483.167 500.5,467.833 500.5,452.5C 515.149,452.548 529.649,452.548 544,452.5C 544.5,437.837 544.667,423.17 544.5,408.5C 529.324,408.829 514.324,408.496 499.5,407.5 Z"/></g>
<g><path style="opacity:1" fill="#16ad00" d="M 546.5,454.5 C 561.167,454.5 575.833,454.5 590.5,454.5C 590.5,469.167 590.5,483.833 590.5,498.5C 575.833,498.5 561.167,498.5 546.5,498.5C 546.444,483.684 546.444,469.017 546.5,454.5 Z"/></g>
<g><path style="opacity:1" fill="#91891c" d="M 638.5,500.5 C 653.833,500.5 669.167,500.5 684.5,500.5C 684.5,515.5 684.5,530.5 684.5,545.5C 684.167,545.5 683.833,545.5 683.5,545.5C 668.324,545.829 653.324,545.496 638.5,544.5C 638.5,529.833 638.5,515.167 638.5,500.5 Z"/></g>
<g><path style="opacity:1" fill="#645e0d" d="M 685.5,499.5 C 700.167,499.5 714.833,499.5 729.5,499.5C 729.5,514.833 729.5,530.167 729.5,545.5C 745.167,545.5 760.833,545.5 776.5,545.5C 776.5,545.833 776.5,546.167 776.5,546.5C 761.5,546.5 746.5,546.5 731.5,546.5C 730.504,561.324 730.171,576.324 730.5,591.5C 715.5,591.5 700.5,591.5 685.5,591.5C 685.83,575.991 685.496,560.658 684.5,545.5C 684.5,530.5 684.5,515.5 684.5,500.5C 684.5,499.833 684.833,499.5 685.5,499.5 Z"/></g>
<g><path style="opacity:1" fill="#40ad00" d="M 454.5,500.5 C 469.167,500.5 483.833,500.5 498.5,500.5C 498.5,515.167 498.5,529.833 498.5,544.5C 483.833,544.5 469.167,544.5 454.5,544.5C 454.5,529.833 454.5,515.167 454.5,500.5 Z"/></g>
<g><path style="opacity:1" fill="#669a02" d="M 591.5,453.5 C 591.833,453.5 592.167,453.5 592.5,453.5C 592.5,453.833 592.5,454.167 592.5,454.5C 592.5,469.167 592.5,483.833 592.5,498.5C 607.5,498.5 622.5,498.5 637.5,498.5C 637.833,499.167 638.167,499.833 638.5,500.5C 638.5,515.167 638.5,529.833 638.5,544.5C 637.833,529.833 637.167,515.167 636.5,500.5C 635.833,500.5 635.167,500.5 634.5,500.5C 620.255,500.824 606.088,500.49 592,499.5C 591.5,484.17 591.333,468.837 591.5,453.5 Z"/></g>
<g><path style="opacity:0.616" fill="#b19800" d="M 176.5,459.5 C 176.5,472.5 176.5,485.5 176.5,498.5C 207.167,498.5 237.833,498.5 268.5,498.5C 268.5,498.833 268.5,499.167 268.5,499.5C 268.167,499.5 267.833,499.5 267.5,499.5C 237.167,499.5 206.833,499.5 176.5,499.5C 176.831,530.005 176.498,560.338 175.5,590.5C 175.5,560.167 175.5,529.833 175.5,499.5C 160.167,499.5 144.833,499.5 129.5,499.5C 129.5,499.167 129.5,498.833 129.5,498.5C 144.833,498.5 160.167,498.5 175.5,498.5C 175.171,485.323 175.505,472.323 176.5,459.5 Z"/></g>
<g><path style="opacity:0.361" fill="#685800" d="M 129.5,499.5 C 144.833,499.5 160.167,499.5 175.5,499.5C 175.5,529.833 175.5,560.167 175.5,590.5C 172.167,591.833 168.833,591.833 165.5,590.5C 168.5,590.5 171.5,590.5 174.5,590.5C 174.5,560.5 174.5,530.5 174.5,500.5C 159.324,500.829 144.324,500.496 129.5,499.5 Z"/></g>
<g><path style="opacity:1" fill="#dbbc00" d="M 360.5,546.5 C 376.005,547.167 391.672,547.833 407.5,548.5C 406.168,562.863 406.168,577.196 407.5,591.5C 391.833,591.5 376.167,591.5 360.5,591.5C 345.5,591.5 330.5,591.5 315.5,591.5C 315.5,576.5 315.5,561.5 315.5,546.5C 330.5,546.5 345.5,546.5 360.5,546.5 Z"/></g>
<g><path style="opacity:1" fill="#ded12d" d="M 360.5,546.5 C 391.167,546.5 421.833,546.5 452.5,546.5C 452.5,561.5 452.5,576.5 452.5,591.5C 437.5,591.5 422.5,591.5 407.5,591.5C 406.168,577.196 406.168,562.863 407.5,548.5C 391.672,547.833 376.005,547.167 360.5,546.5 Z"/></g>
<g><path style="opacity:0.671" fill="#0f6801" d="M 684.5,545.5 C 685.496,560.658 685.83,575.991 685.5,591.5C 654.833,592.167 624.167,592.833 593.5,593.5C 593.824,608.745 593.491,623.911 592.5,639C 577.17,639.5 561.837,639.667 546.5,639.5C 546.5,639.167 546.5,638.833 546.5,638.5C 561.324,637.504 576.324,637.171 591.5,637.5C 591.176,622.255 591.509,607.089 592.5,592C 623.165,591.5 653.832,591.333 684.5,591.5C 684.5,576.167 684.5,560.833 684.5,545.5 Z"/></g>
<g><path style="opacity:1" fill="#d6b500" d="M 267.5,499.5 C 267.5,499.833 267.5,500.167 267.5,500.5C 237.5,500.5 207.5,500.5 177.5,500.5C 177.5,530.5 177.5,560.5 177.5,590.5C 177.217,591.289 176.717,591.956 176,592.5C 175.5,607.83 175.333,623.163 175.5,638.5C 160.167,638.5 144.833,638.5 129.5,638.5C 129.5,622.5 129.5,606.5 129.5,590.5C 141.5,590.5 153.5,590.5 165.5,590.5C 168.833,591.833 172.167,591.833 175.5,590.5C 176.498,560.338 176.831,530.005 176.5,499.5C 206.833,499.5 237.167,499.5 267.5,499.5 Z"/></g>
<g><path style="opacity:1" fill="#b2a822" d="M 360.5,591.5 C 376.167,591.5 391.833,591.5 407.5,591.5C 422.5,591.5 437.5,591.5 452.5,591.5C 452.429,606.38 452.429,621.38 452.5,636.5C 422.493,636.167 392.493,636.5 362.5,637.5C 362.192,638.308 361.692,638.975 361,639.5C 360.5,654.163 360.333,668.83 360.5,683.5C 345.5,683.5 330.5,683.5 315.5,683.5C 315.5,668.5 315.5,653.5 315.5,638.5C 330.5,638.5 345.5,638.5 360.5,638.5C 360.5,622.833 360.5,607.167 360.5,591.5 Z"/></g>
<g><path style="opacity:1" fill="#00a200" d="M 636.5,500.5 C 637.167,515.167 637.833,529.833 638.5,544.5C 653.324,545.496 668.324,545.829 683.5,545.5C 683.5,560.5 683.5,575.5 683.5,590.5C 652.832,590.333 622.165,590.5 591.5,591C 590.509,606.089 590.176,621.255 590.5,636.5C 575.496,636.333 560.496,636.5 545.5,637C 544.509,652.089 544.176,667.255 544.5,682.5C 529.833,682.5 515.167,682.5 500.5,682.5C 500.525,652.323 499.859,622.323 498.5,592.5C 483.324,592.829 468.324,592.496 453.5,591.5C 454.496,576.342 454.83,561.009 454.5,545.5C 469.5,545.5 484.5,545.5 499.5,545.5C 499.167,560.848 499.501,576.181 500.5,591.5C 501.167,591.833 501.833,592.167 502.5,592.5C 531.784,591.168 561.118,590.501 590.5,590.5C 590.333,576.163 590.5,561.829 591,547.5C 591.5,547 592,546.5 592.5,546C 607.163,545.5 621.83,545.333 636.5,545.5C 636.5,530.5 636.5,515.5 636.5,500.5 Z"/></g>
<g><path style="opacity:1" fill="#40ad00" d="M 500.5,546.5 C 515.167,546.5 529.833,546.5 544.5,546.5C 544.5,561.167 544.5,575.833 544.5,590.5C 529.833,590.5 515.167,590.5 500.5,590.5C 500.5,575.833 500.5,561.167 500.5,546.5 Z"/></g>
<g><path style="opacity:1" fill="#e5dc69" d="M 221.5,683.5 C 206.5,683.5 191.5,683.5 176.5,683.5C 176.5,668.5 176.5,653.5 176.5,638.5C 177.483,623.245 177.817,607.911 177.5,592.5C 192.167,592.5 206.833,592.5 221.5,592.5C 221.5,622.833 221.5,653.167 221.5,683.5 Z"/></g>
<g><path style="opacity:1" fill="#dabd00" d="M 314.5,592.5 C 314.5,607.833 314.5,623.167 314.5,638.5C 299.167,638.5 283.833,638.5 268.5,638.5C 268.5,653.5 268.5,668.5 268.5,683.5C 253.167,683.5 237.833,683.5 222.5,683.5C 222.5,653.167 222.5,622.833 222.5,592.5C 253.167,592.5 283.833,592.5 314.5,592.5 Z"/></g>
<g><path style="opacity:0.565" fill="#393906" d="M 731.5,546.5 C 731.5,561.167 731.5,575.833 731.5,590.5C 747.078,590.176 762.578,590.509 778,591.5C 778.667,606.833 778.667,622.167 778,637.5C 777.5,638 777,638.5 776.5,639C 761.167,639.667 745.833,639.667 730.5,639C 729.509,623.911 729.176,608.745 729.5,593.5C 684.167,593.5 638.833,593.5 593.5,593.5C 624.167,592.833 654.833,592.167 685.5,591.5C 700.5,591.5 715.5,591.5 730.5,591.5C 730.171,576.324 730.504,561.324 731.5,546.5 Z"/></g>
<g><path style="opacity:1" fill="#645e0d" d="M 731.5,591.5 C 746.5,591.5 761.5,591.5 776.5,591.5C 776.5,606.833 776.5,622.167 776.5,637.5C 761.167,637.5 745.833,637.5 730.5,637.5C 730.183,622.089 730.517,606.755 731.5,591.5 Z"/></g>
<g><path style="opacity:1" fill="#e0cd3b" d="M 267.5,499.5 C 267.833,499.5 268.167,499.5 268.5,499.5C 268.833,499.5 269.167,499.5 269.5,499.5C 269.5,515.167 269.5,530.833 269.5,546.5C 253.833,546.5 238.167,546.5 222.5,546.5C 222.5,561.5 222.5,576.5 222.5,591.5C 253.167,591.5 283.833,591.5 314.5,591.5C 314.5,576.167 314.5,560.833 314.5,545.5C 329.5,545.5 344.5,545.5 359.5,545.5C 359.833,545.5 360.167,545.5 360.5,545.5C 360.5,545.833 360.5,546.167 360.5,546.5C 345.5,546.5 330.5,546.5 315.5,546.5C 315.5,561.5 315.5,576.5 315.5,591.5C 315.5,592.167 315.167,592.5 314.5,592.5C 283.833,592.5 253.167,592.5 222.5,592.5C 222.5,622.833 222.5,653.167 222.5,683.5C 222.167,683.5 221.833,683.5 221.5,683.5C 221.5,653.167 221.5,622.833 221.5,592.5C 206.833,592.5 192.167,592.5 177.5,592.5C 177.817,607.911 177.483,623.245 176.5,638.5C 176.167,638.5 175.833,638.5 175.5,638.5C 175.333,623.163 175.5,607.83 176,592.5C 176.717,591.956 177.217,591.289 177.5,590.5C 192.167,590.5 206.833,590.5 221.5,590.5C 221.176,575.255 221.509,560.089 222.5,545C 237.496,544.5 252.496,544.333 267.5,544.5C 267.5,529.833 267.5,515.167 267.5,500.5C 267.5,500.167 267.5,499.833 267.5,499.5 Z"/></g>
<g><path style="opacity:0.91" fill="#009500" d="M 683.5,545.5 C 683.833,545.5 684.167,545.5 684.5,545.5C 684.5,560.833 684.5,576.167 684.5,591.5C 653.832,591.333 623.165,591.5 592.5,592C 591.509,607.089 591.176,622.255 591.5,637.5C 576.324,637.171 561.324,637.504 546.5,638.5C 545.504,653.324 545.171,668.324 545.5,683.5C 530.324,683.829 515.324,683.496 500.5,682.5C 515.167,682.5 529.833,682.5 544.5,682.5C 544.176,667.255 544.509,652.089 545.5,637C 560.496,636.5 575.496,636.333 590.5,636.5C 590.176,621.255 590.509,606.089 591.5,591C 622.165,590.5 652.832,590.333 683.5,590.5C 683.5,575.5 683.5,560.5 683.5,545.5 Z"/></g>
<g><path style="opacity:1" fill="#ddd12d" d="M 315.5,591.5 C 330.5,591.5 345.5,591.5 360.5,591.5C 360.5,607.167 360.5,622.833 360.5,638.5C 345.5,638.5 330.5,638.5 315.5,638.5C 315.5,653.5 315.5,668.5 315.5,683.5C 315.5,683.833 315.5,684.167 315.5,684.5C 314.504,699.658 314.17,714.991 314.5,730.5C 299.5,730.5 284.5,730.5 269.5,730.5C 269.83,714.658 269.496,698.991 268.5,683.5C 268.5,668.5 268.5,653.5 268.5,638.5C 283.833,638.5 299.167,638.5 314.5,638.5C 314.5,623.167 314.5,607.833 314.5,592.5C 315.167,592.5 315.5,592.167 315.5,591.5 Z"/></g>
<g><path style="opacity:1" fill="#978e15" d="M 497.5,637.5 C 483.163,637.333 468.829,637.5 454.5,638C 454,638.5 453.5,639 453,639.5C 452.5,654.496 452.333,669.496 452.5,684.5C 437.657,684.171 422.99,684.504 408.5,685.5C 407.833,700.167 407.167,714.833 406.5,729.5C 406.5,713.833 406.5,698.167 406.5,682.5C 391.833,682.5 377.167,682.5 362.5,682.5C 362.5,668.167 362.5,653.833 362.5,639.5C 391.169,639.333 419.835,639.5 448.5,640C 448.553,653.017 448.553,666.184 448.5,679.5C 434.342,679.019 420.342,679.519 406.5,681C 421.344,682.483 436.344,682.983 451.5,682.5C 452.167,652.833 452.833,623.167 453.5,593.5C 468.167,593.5 482.833,593.5 497.5,593.5C 497.5,608.167 497.5,622.833 497.5,637.5 Z"/></g>
<g><path style="opacity:1" fill="#a2991b" d="M 452.5,591.5 C 452.833,591.5 453.167,591.5 453.5,591.5C 468.324,592.496 483.324,592.829 498.5,592.5C 498.5,607.5 498.5,622.5 498.5,637.5C 498.167,637.5 497.833,637.5 497.5,637.5C 497.5,622.833 497.5,608.167 497.5,593.5C 482.833,593.5 468.167,593.5 453.5,593.5C 452.833,623.167 452.167,652.833 451.5,682.5C 436.344,682.983 421.344,682.483 406.5,681C 420.342,679.519 434.342,679.019 448.5,679.5C 448.553,666.184 448.553,653.017 448.5,640C 419.835,639.5 391.169,639.333 362.5,639.5C 362.5,653.833 362.5,668.167 362.5,682.5C 377.167,682.5 391.833,682.5 406.5,682.5C 406.5,698.167 406.5,713.833 406.5,729.5C 406.5,730.167 406.5,730.833 406.5,731.5C 406.167,731.5 405.833,731.5 405.5,731.5C 390.833,731.5 376.167,731.5 361.5,731.5C 361.5,746.167 361.5,760.833 361.5,775.5C 345.578,776.484 329.578,776.817 313.5,776.5C 313.5,761.833 313.5,747.167 313.5,732.5C 299.167,732.5 284.833,732.5 270.5,732.5C 270.829,747.01 270.496,761.343 269.5,775.5C 269.5,760.833 269.5,746.167 269.5,731.5C 284.833,731.5 300.167,731.5 315.5,731.5C 315.5,746.167 315.5,760.833 315.5,775.5C 330.167,775.5 344.833,775.5 359.5,775.5C 359.5,760.833 359.5,746.167 359.5,731.5C 344.921,731.824 330.421,731.49 316,730.5C 315.5,715.17 315.333,699.837 315.5,684.5C 315.5,684.167 315.5,683.833 315.5,683.5C 330.5,683.5 345.5,683.5 360.5,683.5C 360.333,668.83 360.5,654.163 361,639.5C 361.692,638.975 362.192,638.308 362.5,637.5C 392.493,636.5 422.493,636.167 452.5,636.5C 452.429,621.38 452.429,606.38 452.5,591.5 Z"/></g>
<g><path style="opacity:1" fill="#645e0e" d="M 498.5,639.5 C 498.5,654.167 498.5,668.833 498.5,683.5C 483.833,683.5 469.167,683.5 454.5,683.5C 454.5,668.833 454.5,654.167 454.5,639.5C 469.167,639.5 483.833,639.5 498.5,639.5 Z"/></g>
<g><path style="opacity:0.361" fill="#696021" d="M 129.5,638.5 C 144.833,638.5 160.167,638.5 175.5,638.5C 175.5,653.5 175.5,668.5 175.5,683.5C 172.5,683.5 169.5,683.5 166.5,683.5C 154.167,683.5 141.833,683.5 129.5,683.5C 144.324,682.504 159.324,682.171 174.5,682.5C 174.5,668.167 174.5,653.833 174.5,639.5C 159.324,639.829 144.324,639.496 129.5,638.5 Z"/></g>
<g><path style="opacity:0.76" fill="#b7af51" d="M 175.5,638.5 C 175.833,638.5 176.167,638.5 176.5,638.5C 176.5,653.5 176.5,668.5 176.5,683.5C 191.5,683.5 206.5,683.5 221.5,683.5C 221.5,683.833 221.5,684.167 221.5,684.5C 206.5,684.5 191.5,684.5 176.5,684.5C 176.5,699.5 176.5,714.5 176.5,729.5C 176.167,729.5 175.833,729.5 175.5,729.5C 175.5,714.5 175.5,699.5 175.5,684.5C 172.287,684.81 169.287,684.477 166.5,683.5C 169.5,683.5 172.5,683.5 175.5,683.5C 175.5,668.5 175.5,653.5 175.5,638.5 Z"/></g>
<g><path style="opacity:1" fill="#268001" d="M 498.5,592.5 C 499.859,622.323 500.525,652.323 500.5,682.5C 515.324,683.496 530.324,683.829 545.5,683.5C 545.171,668.324 545.504,653.324 546.5,638.5C 546.5,638.833 546.5,639.167 546.5,639.5C 546.5,654.833 546.5,670.167 546.5,685.5C 531.167,685.5 515.833,685.5 500.5,685.5C 500.167,684.5 499.5,683.833 498.5,683.5C 498.5,668.833 498.5,654.167 498.5,639.5C 498.5,638.833 498.5,638.167 498.5,637.5C 498.5,622.5 498.5,607.5 498.5,592.5 Z"/></g>
<g><path style="opacity:1" fill="#e4db68" d="M 129.5,683.5 C 141.833,683.5 154.167,683.5 166.5,683.5C 169.287,684.477 172.287,684.81 175.5,684.5C 175.5,699.5 175.5,714.5 175.5,729.5C 160.167,729.5 144.833,729.5 129.5,729.5C 129.5,714.167 129.5,698.833 129.5,683.5 Z"/></g>
<g><path style="opacity:1" fill="#978e15" d="M 316.5,684.5 C 331.167,684.5 345.833,684.5 360.5,684.5C 360.5,699.5 360.5,714.5 360.5,729.5C 345.833,729.5 331.167,729.5 316.5,729.5C 316.5,714.5 316.5,699.5 316.5,684.5 Z"/></g>
<g><path style="opacity:1" fill="#b4a924" d="M 362.5,685.5 C 376.833,685.5 391.167,685.5 405.5,685.5C 405.5,700.167 405.5,714.833 405.5,729.5C 391.167,729.5 376.833,729.5 362.5,729.5C 362.5,714.833 362.5,700.167 362.5,685.5 Z"/></g>
<g><path style="opacity:1" fill="#756e11" d="M 497.5,637.5 C 497.833,637.5 498.167,637.5 498.5,637.5C 498.5,638.167 498.5,638.833 498.5,639.5C 483.833,639.5 469.167,639.5 454.5,639.5C 454.5,654.167 454.5,668.833 454.5,683.5C 469.167,683.5 483.833,683.5 498.5,683.5C 483.676,684.496 468.676,684.829 453.5,684.5C 453.5,715.167 453.5,745.833 453.5,776.5C 468.833,776.5 484.167,776.5 499.5,776.5C 499.176,791.745 499.509,806.911 500.5,822C 515.574,822.816 530.574,822.649 545.5,821.5C 545.672,822.492 545.338,823.158 544.5,823.5C 529.167,823.5 513.833,823.5 498.5,823.5C 498.5,808.167 498.5,792.833 498.5,777.5C 483.833,777.5 469.167,777.5 454.5,777.5C 454.829,792.676 454.496,807.676 453.5,822.5C 453.5,807.5 453.5,792.5 453.5,777.5C 438.167,777.5 422.833,777.5 407.5,777.5C 407.333,792.17 407.5,806.837 408,821.5C 422.755,822.491 437.588,822.824 452.5,822.5C 437.342,823.496 422.009,823.83 406.5,823.5C 406.5,808.167 406.5,792.833 406.5,777.5C 391.5,777.5 376.5,777.5 361.5,777.5C 376.324,776.504 391.324,776.171 406.5,776.5C 406.5,761.5 406.5,746.5 406.5,731.5C 406.5,730.833 406.5,730.167 406.5,729.5C 407.167,714.833 407.833,700.167 408.5,685.5C 422.99,684.504 437.657,684.171 452.5,684.5C 452.333,669.496 452.5,654.496 453,639.5C 453.5,639 454,638.5 454.5,638C 468.829,637.5 483.163,637.333 497.5,637.5 Z"/></g>
<g><path style="opacity:1" fill="#928918" d="M 498.5,683.5 C 499.5,683.833 500.167,684.5 500.5,685.5C 499.502,715.662 499.169,745.995 499.5,776.5C 484.167,776.5 468.833,776.5 453.5,776.5C 453.5,745.833 453.5,715.167 453.5,684.5C 468.676,684.829 483.676,684.496 498.5,683.5 Z"/></g>
<g><path style="opacity:1" fill="#645e0e" d="M 500.5,685.5 C 515.833,685.5 531.167,685.5 546.5,685.5C 546.5,730.167 546.5,774.833 546.5,819.5C 546.167,819.5 545.833,819.5 545.5,819.5C 545.824,805.255 545.49,791.088 544.5,777C 529.504,776.5 514.504,776.333 499.5,776.5C 499.169,745.995 499.502,715.662 500.5,685.5 Z"/></g>
<g><path style="opacity:1" fill="#645e0d" d="M 408.5,685.5 C 423.167,685.5 437.833,685.5 452.5,685.5C 452.5,715.5 452.5,745.5 452.5,775.5C 437.833,775.5 423.167,775.5 408.5,775.5C 408.5,745.5 408.5,715.5 408.5,685.5 Z"/></g>
<g><path style="opacity:0.398" fill="#71661e" d="M 221.5,684.5 C 237.009,684.17 252.342,684.504 267.5,685.5C 237.5,685.5 207.5,685.5 177.5,685.5C 177.831,716.338 177.498,747.005 176.5,777.5C 176.5,761.5 176.5,745.5 176.5,729.5C 176.5,714.5 176.5,699.5 176.5,684.5C 191.5,684.5 206.5,684.5 221.5,684.5 Z"/></g>
<g><path style="opacity:0.998" fill="#dcd02d" d="M 268.5,776.5 C 253.167,777.833 237.833,777.833 222.5,776.5C 222.5,761.167 222.5,745.833 222.5,730.5C 237.548,730.183 252.548,730.516 267.5,731.5C 268.499,746.485 268.833,761.485 268.5,776.5 Z"/></g>
<g><path style="opacity:1" fill="#988f15" d="M 405.5,731.5 C 405.5,746.167 405.5,760.833 405.5,775.5C 390.833,775.5 376.167,775.5 361.5,775.5C 361.5,760.833 361.5,746.167 361.5,731.5C 376.167,731.5 390.833,731.5 405.5,731.5 Z"/></g>
<g><path style="opacity:1" fill="#d5b102" d="M 129.5,729.5 C 144.833,729.5 160.167,729.5 175.5,729.5C 175.5,744.833 175.5,760.167 175.5,775.5C 160.167,775.5 144.833,775.5 129.5,775.5C 129.5,760.167 129.5,744.833 129.5,729.5 Z"/></g>
<g><path style="opacity:1" fill="#978e15" d="M 313.5,776.5 C 298.833,776.5 284.167,776.5 269.5,776.5C 269.5,776.167 269.5,775.833 269.5,775.5C 270.496,761.343 270.829,747.01 270.5,732.5C 284.833,732.5 299.167,732.5 313.5,732.5C 313.5,747.167 313.5,761.833 313.5,776.5 Z"/></g>
<g><path style="opacity:1" fill="#aea521" d="M 221.5,684.5 C 221.5,684.167 221.5,683.833 221.5,683.5C 221.833,683.5 222.167,683.5 222.5,683.5C 237.833,683.5 253.167,683.5 268.5,683.5C 269.496,698.991 269.83,714.658 269.5,730.5C 284.5,730.5 299.5,730.5 314.5,730.5C 314.17,714.991 314.504,699.658 315.5,684.5C 315.333,699.837 315.5,715.17 316,730.5C 330.421,731.49 344.921,731.824 359.5,731.5C 359.5,746.167 359.5,760.833 359.5,775.5C 344.833,775.5 330.167,775.5 315.5,775.5C 315.5,760.833 315.5,746.167 315.5,731.5C 300.167,731.5 284.833,731.5 269.5,731.5C 269.5,746.167 269.5,760.833 269.5,775.5C 269.5,775.833 269.5,776.167 269.5,776.5C 269.167,776.5 268.833,776.5 268.5,776.5C 268.833,761.485 268.499,746.485 267.5,731.5C 252.548,730.516 237.548,730.183 222.5,730.5C 222.5,745.833 222.5,761.167 222.5,776.5C 221.504,761.009 221.17,745.342 221.5,729.5C 236.658,728.504 251.991,728.17 267.5,728.5C 267.5,714.167 267.5,699.833 267.5,685.5C 252.342,684.504 237.009,684.17 221.5,684.5 Z"/></g>
<g><path style="opacity:0.843" fill="#ae8e00" d="M 175.5,729.5 C 175.833,729.5 176.167,729.5 176.5,729.5C 176.5,745.5 176.5,761.5 176.5,777.5C 160.464,778.151 144.798,777.484 129.5,775.5C 144.833,775.5 160.167,775.5 175.5,775.5C 175.5,760.167 175.5,744.833 175.5,729.5 Z"/></g>
<g><path style="opacity:1" fill="#8f8717" d="M 405.5,731.5 C 405.833,731.5 406.167,731.5 406.5,731.5C 406.5,746.5 406.5,761.5 406.5,776.5C 391.324,776.171 376.324,776.504 361.5,777.5C 361.5,792.5 361.5,807.5 361.5,822.5C 345.833,822.5 330.167,822.5 314.5,822.5C 314.829,807.324 314.496,792.324 313.5,777.5C 298.833,777.5 284.167,777.5 269.5,777.5C 269.5,777.167 269.5,776.833 269.5,776.5C 284.167,776.5 298.833,776.5 313.5,776.5C 329.578,776.817 345.578,776.484 361.5,775.5C 376.167,775.5 390.833,775.5 405.5,775.5C 405.5,760.833 405.5,746.167 405.5,731.5 Z"/></g>
<g><path style="opacity:1" fill="#635d0d" d="M 313.5,777.5 C 314.496,792.324 314.829,807.324 314.5,822.5C 330.167,822.5 345.833,822.5 361.5,822.5C 361.5,807.5 361.5,792.5 361.5,777.5C 376.5,777.5 391.5,777.5 406.5,777.5C 406.5,792.833 406.5,808.167 406.5,823.5C 422.009,823.83 437.342,823.496 452.5,822.5C 452.833,822.5 453.167,822.5 453.5,822.5C 454.496,807.676 454.829,792.676 454.5,777.5C 469.167,777.5 483.833,777.5 498.5,777.5C 498.5,792.833 498.5,808.167 498.5,823.5C 483.5,823.5 468.5,823.5 453.5,823.5C 453.5,838.833 453.5,854.167 453.5,869.5C 437.833,869.5 422.167,869.5 406.5,869.5C 406.824,854.255 406.491,839.089 405.5,824C 374.835,823.5 344.168,823.333 313.5,823.5C 313.5,808.167 313.5,792.833 313.5,777.5 Z"/></g>
<g><path style="opacity:1" fill="#645e0e" d="M 457.5,780.5 C 470.08,780.178 482.58,780.511 495,781.5C 495.5,794.829 495.667,808.163 495.5,821.5C 482.833,821.5 470.167,821.5 457.5,821.5C 457.5,807.833 457.5,794.167 457.5,780.5 Z"/></g>
<g><path style="opacity:1" fill="#918817" d="M 499.5,776.5 C 514.504,776.333 529.504,776.5 544.5,777C 545.49,791.088 545.824,805.255 545.5,819.5C 545.5,820.167 545.5,820.833 545.5,821.5C 530.574,822.649 515.574,822.816 500.5,822C 499.509,806.911 499.176,791.745 499.5,776.5 Z"/></g>
<g><path style="opacity:1" fill="#a59b20" d="M 222.5,776.5 C 237.833,777.833 253.167,777.833 268.5,776.5C 268.833,776.5 269.167,776.5 269.5,776.5C 269.5,776.833 269.5,777.167 269.5,777.5C 270.159,808.518 269.492,839.185 267.5,869.5C 267.667,854.163 267.5,838.83 267,823.5C 259.91,822.842 252.743,822.508 245.5,822.5C 238.257,822.508 231.09,822.842 224,823.5C 223.5,838.83 223.333,854.163 223.5,869.5C 223.167,869.5 222.833,869.5 222.5,869.5C 222.5,838.5 222.5,807.5 222.5,776.5 Z"/></g>
<g><path style="opacity:1" fill="#918918" d="M 453.5,822.5 C 453.167,822.5 452.833,822.5 452.5,822.5C 437.588,822.824 422.755,822.491 408,821.5C 407.5,806.837 407.333,792.17 407.5,777.5C 422.833,777.5 438.167,777.5 453.5,777.5C 453.5,792.5 453.5,807.5 453.5,822.5 Z"/></g>
<g><path style="opacity:0.565" fill="#665f0e" d="M 221.5,729.5 C 221.17,745.342 221.504,761.009 222.5,776.5C 222.5,807.5 222.5,838.5 222.5,869.5C 221.167,846.51 220.5,823.176 220.5,799.5C 220.5,775.998 220.833,752.664 221.5,729.5 Z"/></g>
<g><path style="opacity:1" fill="#afa521" d="M 267.5,869.5 C 252.833,869.5 238.167,869.5 223.5,869.5C 223.333,854.163 223.5,838.83 224,823.5C 231.09,822.842 238.257,822.508 245.5,822.5C 252.743,822.508 259.91,822.842 267,823.5C 267.5,838.83 267.667,854.163 267.5,869.5 Z"/></g>
<g><path style="opacity:0.467" fill="#2e2b02" d="M 498.5,823.5 C 513.833,823.5 529.167,823.5 544.5,823.5C 544.5,823.833 544.5,824.167 544.5,824.5C 514.5,824.5 484.5,824.5 454.5,824.5C 454.829,839.676 454.496,854.676 453.5,869.5C 453.5,854.167 453.5,838.833 453.5,823.5C 468.5,823.5 483.5,823.5 498.5,823.5 Z"/></g>
<g><path style="opacity:0.72" fill="#4a4508" d="M 545.5,819.5 C 545.833,819.5 546.167,819.5 546.5,819.5C 561.798,821.484 577.464,822.151 593.5,821.5C 594.151,837.868 593.485,853.868 591.5,869.5C 591.667,854.163 591.5,838.83 591,823.5C 590.107,822.919 589.107,822.585 588,822.5C 574.156,823.176 560.323,823.843 546.5,824.5C 546.5,839.5 546.5,854.5 546.5,869.5C 544.516,854.871 543.85,839.871 544.5,824.5C 544.5,824.167 544.5,823.833 544.5,823.5C 545.338,823.158 545.672,822.492 545.5,821.5C 545.5,820.833 545.5,820.167 545.5,819.5 Z"/></g>
<g><path style="opacity:1" fill="#645e0d" d="M 591.5,869.5 C 576.5,869.5 561.5,869.5 546.5,869.5C 546.5,854.5 546.5,839.5 546.5,824.5C 560.323,823.843 574.156,823.176 588,822.5C 589.107,822.585 590.107,822.919 591,823.5C 591.5,838.83 591.667,854.163 591.5,869.5 Z"/></g>
</svg>
